FFmpeg version SVN-r25716, Copyright (c) 2000-2010 the FFmpeg developers  built on Nov 10 2010 12:23:18 with gcc 4.1.2 20080704 (Red Hat 4.1.2-48)  configuration: --enable-libmp3lame --enable-shared --disable-mmx --arch=x86_64  libavutil     50.33. 0 / 50.33. 0  libavcore      0.12. 1 /  0.12. 1  libavcodec    52.94. 4 / 52.94. 4  libavformat   52.84. 0 / 52.84. 0  libavdevice   52. 2. 2 / 52. 2. 2  libavfilter    1.59. 0 /  1.59. 0  libswscale     0.12. 0 /  0.12. 0Seems stream 0 codec frame rate differs from container frame rate: 600.00 (600/1) -> 12.00 (12/1)Input #0, mov,mp4,m4a,3gp,3g2,mj2, from '/RAID10/data/converted_video_files/13090.mov':  Duration: 00:00:09.33, start: 0.000000, bitrate: 14296 kb/s    Stream #0.0(eng): Video: mjpeg, yuvj420p, 431x364 [PAR 1:1 DAR 431:364], 14295 kb/s, 12 fps, 12 tbr, 600 tbn, 600 tbc[buffer @ 0x2f6a5d0] w:431 h:364 pixfmt:yuvj420p[ffsink @ 0x2f5ed50] auto-inserting filter 'auto-inserted scaler 0' between the filter 'src' and the filter 'out'[scale @ 0x2f5f070] w:431 h:364 fmt:yuvj420p -> w:431 h:364 fmt:yuv420p flags:0x4Output #0, flv, to '/RAID10/data/converted_video_files/13090.flv':  Metadata:    encoder         : Lavf52.84.0    Stream #0.0(eng): Video: flv, yuv420p, 431x364 [PAR 1:1 DAR 431:364], q=2-31, 600 kb/s, 1k tbn, 24 tbcStream mapping:  Stream #0.0 -> #0.0Press [q] to stop encodingframe=   38 fps=  0 q=6.6 size=     319kB time=3.12 bitrate= 837.2kbits/s    frame=   82 fps= 78 q=5.6 size=     490kB time=6.79 bitrate= 591.6kbits/s    frame=  112 fps= 80 q=4.2 Lsize=     633kB time=9.29 bitrate= 557.9kbits/s    video:631kB audio:0kB global headers:0kB muxing overhead 0.309917%